<?xml version="1.0" encoding="UTF-8"?>
<!DOCTYPE svg PUBLIC "-//W3C//DTD SVG 1.1//EN" "http://www.w3.org/Graphics/SVG/1.1/DTD/svg11.dtd">
<svg xmlns="http://www.w3.org/2000/svg" version="1.1" viewBox="0 0 35 35" stroke="none">
	<rect width="100%" height="100%" fill="#FFFFFF"/>
	<path d="M3,3h1v1h-1z M4,3h1v1h-1z M5,3h1v1h-1z M6,3h1v1h-1z M7,3h1v1h-1z M8,3h1v1h-1z M9,3h1v1h-1z M11,3h1v1h-1z M12,3h1v1h-1z M15,3h1v1h-1z M16,3h1v1h-1z M17,3h1v1h-1z M18,3h1v1h-1z M20,3h1v1h-1z M21,3h1v1h-1z M25,3h1v1h-1z M26,3h1v1h-1z M27,3h1v1h-1z M28,3h1v1h-1z M29,3h1v1h-1z M30,3h1v1h-1z M31,3h1v1h-1z M3,4h1v1h-1z M9,4h1v1h-1z M11,4h1v1h-1z M14,4h1v1h-1z M16,4h1v1h-1z M17,4h1v1h-1z M18,4h1v1h-1z M20,4h1v1h-1z M21,4h1v1h-1z M23,4h1v1h-1z M25,4h1v1h-1z M31,4h1v1h-1z M3,5h1v1h-1z M5,5h1v1h-1z M6,5h1v1h-1z M7,5h1v1h-1z M9,5h1v1h-1z M11,5h1v1h-1z M12,5h1v1h-1z M14,5h1v1h-1z M15,5h1v1h-1z M16,5h1v1h-1z M22,5h1v1h-1z M23,5h1v1h-1z M25,5h1v1h-1z M27,5h1v1h-1z M28,5h1v1h-1z M29,5h1v1h-1z M31,5h1v1h-1z M3,6h1v1h-1z M5,6h1v1h-1z M6,6h1v1h-1z M7,6h1v1h-1z M9,6h1v1h-1z M12,6h1v1h-1z M15,6h1v1h-1z M16,6h1v1h-1z M18,6h1v1h-1z M20,6h1v1h-1z M22,6h1v1h-1z M25,6h1v1h-1z M27,6h1v1h-1z M28,6h1v1h-1z M29,6h1v1h-1z M31,6h1v1h-1z M3,7h1v1h-1z M5,7h1v1h-1z M6,7h1v1h-1z M7,7h1v1h-1z M9,7h1v1h-1z M12,7h1v1h-1z M13,7h1v1h-1z M14,7h1v1h-1z M17,7h1v1h-1z M20,7h1v1h-1z M21,7h1v1h-1z M22,7h1v1h-1z M23,7h1v1h-1z M25,7h1v1h-1z M27,7h1v1h-1z M28,7h1v1h-1z M29,7h1v1h-1z M31,7h1v1h-1z M3,8h1v1h-1z M9,8h1v1h-1z M11,8h1v1h-1z M13,8h1v1h-1z M14,8h1v1h-1z M17,8h1v1h-1z M18,8h1v1h-1z M19,8h1v1h-1z M20,8h1v1h-1z M25,8h1v1h-1z M31,8h1v1h-1z M3,9h1v1h-1z M4,9h1v1h-1z M5,9h1v1h-1z M6,9h1v1h-1z M7,9h1v1h-1z M8,9h1v1h-1z M9,9h1v1h-1z M11,9h1v1h-1z M13,9h1v1h-1z M15,9h1v1h-1z M17,9h1v1h-1z M19,9h1v1h-1z M21,9h1v1h-1z M23,9h1v1h-1z M25,9h1v1h-1z M26,9h1v1h-1z M27,9h1v1h-1z M28,9h1v1h-1z M29,9h1v1h-1z M30,9h1v1h-1z M31,9h1v1h-1z M11,10h1v1h-1z M12,10h1v1h-1z M15,10h1v1h-1z M17,10h1v1h-1z M18,10h1v1h-1z M20,10h1v1h-1z M21,10h1v1h-1z M23,10h1v1h-1z M5,11h1v1h-1z M6,11h1v1h-1z M7,11h1v1h-1z M9,11h1v1h-1z M11,11h1v1h-1z M12,11h1v1h-1z M13,11h1v1h-1z M16,11h1v1h-1z M18,11h1v1h-1z M22,11h1v1h-1z M24,11h1v1h-1z M25,11h1v1h-1z M26,11h1v1h-1z M29,11h1v1h-1z M30,11h1v1h-1z M31,11h1v1h-1z M4,12h1v1h-1z M5,12h1v1h-1z M8,12h1v1h-1z M10,12h1v1h-1z M11,12h1v1h-1z M14,12h1v1h-1z M15,12h1v1h-1z M17,12h1v1h-1z M19,12h1v1h-1z M20,12h1v1h-1z M21,12h1v1h-1z M22,12h1v1h-1z M24,12h1v1h-1z M25,12h1v1h-1z M27,12h1v1h-1z M29,12h1v1h-1z M31,12h1v1h-1z M5,13h1v1h-1z M9,13h1v1h-1z M11,13h1v1h-1z M12,13h1v1h-1z M13,13h1v1h-1z M16,13h1v1h-1z M18,13h1v1h-1z M21,13h1v1h-1z M23,13h1v1h-1z M24,13h1v1h-1z M25,13h1v1h-1z M26,13h1v1h-1z M27,13h1v1h-1z M29,13h1v1h-1z M4,14h1v1h-1z M5,14h1v1h-1z M10,14h1v1h-1z M13,14h1v1h-1z M14,14h1v1h-1z M15,14h1v1h-1z M18,14h1v1h-1z M19,14h1v1h-1z M20,14h1v1h-1z M21,14h1v1h-1z M23,14h1v1h-1z M24,14h1v1h-1z M25,14h1v1h-1z M26,14h1v1h-1z M27,14h1v1h-1z M28,14h1v1h-1z M30,14h1v1h-1z M3,15h1v1h-1z M4,15h1v1h-1z M5,15h1v1h-1z M6,15h1v1h-1z M8,15h1v1h-1z M9,15h1v1h-1z M10,15h1v1h-1z M12,15h1v1h-1z M14,15h1v1h-1z M16,15h1v1h-1z M17,15h1v1h-1z M19,15h1v1h-1z M21,15h1v1h-1z M22,15h1v1h-1z M24,15h1v1h-1z M26,15h1v1h-1z M29,15h1v1h-1z M30,15h1v1h-1z M31,15h1v1h-1z M3,16h1v1h-1z M5,16h1v1h-1z M7,16h1v1h-1z M8,16h1v1h-1z M11,16h1v1h-1z M12,16h1v1h-1z M13,16h1v1h-1z M14,16h1v1h-1z M17,16h1v1h-1z M20,16h1v1h-1z M22,16h1v1h-1z M23,16h1v1h-1z M24,16h1v1h-1z M25,16h1v1h-1z M27,16h1v1h-1z M28,16h1v1h-1z M31,16h1v1h-1z M6,17h1v1h-1z M8,17h1v1h-1z M9,17h1v1h-1z M13,17h1v1h-1z M16,17h1v1h-1z M18,17h1v1h-1z M19,17h1v1h-1z M20,17h1v1h-1z M21,17h1v1h-1z M23,17h1v1h-1z M25,17h1v1h-1z M26,17h1v1h-1z M3,18h1v1h-1z M5,18h1v1h-1z M10,18h1v1h-1z M11,18h1v1h-1z M12,18h1v1h-1z M13,18h1v1h-1z M14,18h1v1h-1z M19,18h1v1h-1z M24,18h1v1h-1z M25,18h1v1h-1z M27,18h1v1h-1z M28,18h1v1h-1z M31,18h1v1h-1z M3,19h1v1h-1z M5,19h1v1h-1z M6,19h1v1h-1z M7,19h1v1h-1z M8,19h1v1h-1z M9,19h1v1h-1z M14,19h1v1h-1z M15,19h1v1h-1z M16,19h1v1h-1z M20,19h1v1h-1z M28,19h1v1h-1z M29,19h1v1h-1z M31,19h1v1h-1z M3,20h1v1h-1z M6,20h1v1h-1z M7,20h1v1h-1z M8,20h1v1h-1z M11,20h1v1h-1z M17,20h1v1h-1z M18,20h1v1h-1z M21,20h1v1h-1z M22,20h1v1h-1z M23,20h1v1h-1z M24,20h1v1h-1z M25,20h1v1h-1z M26,20h1v1h-1z M27,20h1v1h-1z M30,20h1v1h-1z M31,20h1v1h-1z M3,21h1v1h-1z M5,21h1v1h-1z M6,21h1v1h-1z M7,21h1v1h-1z M9,21h1v1h-1z M10,21h1v1h-1z M11,21h1v1h-1z M12,21h1v1h-1z M14,21h1v1h-1z M15,21h1v1h-1z M16,21h1v1h-1z M17,21h1v1h-1z M21,21h1v1h-1z M23,21h1v1h-1z M25,21h1v1h-1z M28,21h1v1h-1z M29,21h1v1h-1z M3,22h1v1h-1z M6,22h1v1h-1z M7,22h1v1h-1z M8,22h1v1h-1z M10,22h1v1h-1z M13,22h1v1h-1z M16,22h1v1h-1z M18,22h1v1h-1z M21,22h1v1h-1z M22,22h1v1h-1z M23,22h1v1h-1z M25,22h1v1h-1z M26,22h1v1h-1z M27,22h1v1h-1z M28,22h1v1h-1z M31,22h1v1h-1z M3,23h1v1h-1z M5,23h1v1h-1z M7,23h1v1h-1z M8,23h1v1h-1z M9,23h1v1h-1z M11,23h1v1h-1z M12,23h1v1h-1z M13,23h1v1h-1z M15,23h1v1h-1z M16,23h1v1h-1z M20,23h1v1h-1z M22,23h1v1h-1z M23,23h1v1h-1z M24,23h1v1h-1z M25,23h1v1h-1z M26,23h1v1h-1z M27,23h1v1h-1z M29,23h1v1h-1z M11,24h1v1h-1z M12,24h1v1h-1z M15,24h1v1h-1z M16,24h1v1h-1z M23,24h1v1h-1z M27,24h1v1h-1z M28,24h1v1h-1z M30,24h1v1h-1z M31,24h1v1h-1z M3,25h1v1h-1z M4,25h1v1h-1z M5,25h1v1h-1z M6,25h1v1h-1z M7,25h1v1h-1z M8,25h1v1h-1z M9,25h1v1h-1z M13,25h1v1h-1z M15,25h1v1h-1z M16,25h1v1h-1z M17,25h1v1h-1z M20,25h1v1h-1z M21,25h1v1h-1z M22,25h1v1h-1z M23,25h1v1h-1z M25,25h1v1h-1z M27,25h1v1h-1z M3,26h1v1h-1z M9,26h1v1h-1z M12,26h1v1h-1z M13,26h1v1h-1z M14,26h1v1h-1z M18,26h1v1h-1z M21,26h1v1h-1z M22,26h1v1h-1z M23,26h1v1h-1z M27,26h1v1h-1z M28,26h1v1h-1z M31,26h1v1h-1z M3,27h1v1h-1z M5,27h1v1h-1z M6,27h1v1h-1z M7,27h1v1h-1z M9,27h1v1h-1z M11,27h1v1h-1z M12,27h1v1h-1z M13,27h1v1h-1z M16,27h1v1h-1z M17,27h1v1h-1z M19,27h1v1h-1z M21,27h1v1h-1z M23,27h1v1h-1z M24,27h1v1h-1z M25,27h1v1h-1z M26,27h1v1h-1z M27,27h1v1h-1z M28,27h1v1h-1z M29,27h1v1h-1z M31,27h1v1h-1z M3,28h1v1h-1z M5,28h1v1h-1z M6,28h1v1h-1z M7,28h1v1h-1z M9,28h1v1h-1z M11,28h1v1h-1z M14,28h1v1h-1z M16,28h1v1h-1z M18,28h1v1h-1z M19,28h1v1h-1z M21,28h1v1h-1z M22,28h1v1h-1z M23,28h1v1h-1z M24,28h1v1h-1z M26,28h1v1h-1z M3,29h1v1h-1z M5,29h1v1h-1z M6,29h1v1h-1z M7,29h1v1h-1z M9,29h1v1h-1z M11,29h1v1h-1z M12,29h1v1h-1z M14,29h1v1h-1z M15,29h1v1h-1z M16,29h1v1h-1z M17,29h1v1h-1z M18,29h1v1h-1z M21,29h1v1h-1z M22,29h1v1h-1z M23,29h1v1h-1z M24,29h1v1h-1z M25,29h1v1h-1z M26,29h1v1h-1z M27,29h1v1h-1z M28,29h1v1h-1z M30,29h1v1h-1z M3,30h1v1h-1z M9,30h1v1h-1z M15,30h1v1h-1z M16,30h1v1h-1z M17,30h1v1h-1z M18,30h1v1h-1z M20,30h1v1h-1z M23,30h1v1h-1z M24,30h1v1h-1z M27,30h1v1h-1z M28,30h1v1h-1z M30,30h1v1h-1z M3,31h1v1h-1z M4,31h1v1h-1z M5,31h1v1h-1z M6,31h1v1h-1z M7,31h1v1h-1z M8,31h1v1h-1z M9,31h1v1h-1z M13,31h1v1h-1z M15,31h1v1h-1z M17,31h1v1h-1z M19,31h1v1h-1z M22,31h1v1h-1z M25,31h1v1h-1z M27,31h1v1h-1z M29,31h1v1h-1z" fill="#000000"/>
</svg>
